<svg xmlns="http://www.w3.org/2000/svg" viewBox="0 0 35 36"><g fill="#00E88F" fill-rule="nonzero"><path d="M29.06.26l-1.65.3-.05 27.34h-4.42l-.42-2.37a8.08 8.08 0 01-6.13 2.91c-5.66 0-9.8-4.58-9.8-10.96 0-6.33 4.14-10.96 9.8-10.96a7.92 7.92 0 015.55 2.21l.04-7.15L3.97 4.95c-2.15.39-3.9 2.5-3.9 5.03v15.87c0 2.6 1.75 4.66 3.88 5.07l25.12 4.97c3.18.6 5.78-1.76 5.78-5.15V5.66c0-3.77-2.6-5.98-5.79-5.4z"/><path d="M12.1 17.49c0 3.7 1.95 6.12 4.92 6.12 3.2 0 4.92-2.42 4.92-6.12 0-3.71-1.71-6.13-4.92-6.13-2.97 0-4.91 2.42-4.91 6.13z"/></g></svg>